<svg width="157" height="48" viewBox="0 0 157 48" fill="none" xmlns="http://www.w3.org/2000/svg">
<g filter="url(#filter0_d_402_1791)">
<rect x="91" y="6" width="56" height="27" rx="13.5" fill="#0786FF"/>
<path d="M104.978 24.168H104.85C104.605 24.4667 104.306 24.7227 103.954 24.936C103.613 25.1493 103.17 25.256 102.626 25.256C102.221 25.256 101.837 25.1867 101.474 25.048C101.122 24.92 100.813 24.7387 100.546 24.504C100.279 24.2693 100.071 23.9867 99.922 23.656C99.7727 23.3253 99.698 22.9627 99.698 22.568C99.698 22.1627 99.778 21.8 99.938 21.48C100.098 21.1493 100.322 20.8667 100.61 20.632C100.898 20.3973 101.234 20.2213 101.618 20.104C102.013 19.976 102.439 19.912 102.898 19.912C103.41 19.912 103.831 19.9547 104.162 20.04C104.493 20.1147 104.765 20.1947 104.978 20.28V20.04C104.978 19.624 104.813 19.2827 104.482 19.016C104.151 18.7387 103.741 18.6 103.25 18.6C102.525 18.6 101.911 18.904 101.41 19.512L99.89 18.472C100.722 17.4267 101.858 16.904 103.298 16.904C104.514 16.904 105.442 17.192 106.082 17.768C106.722 18.3333 107.042 19.176 107.042 20.296V25H104.978V24.168ZM104.978 21.816C104.733 21.6987 104.477 21.608 104.21 21.544C103.954 21.4693 103.671 21.432 103.362 21.432C102.861 21.432 102.471 21.544 102.194 21.768C101.927 21.9813 101.794 22.248 101.794 22.568C101.794 22.888 101.922 23.144 102.178 23.336C102.445 23.528 102.749 23.624 103.09 23.624C103.367 23.624 103.623 23.576 103.858 23.48C104.093 23.3733 104.29 23.24 104.45 23.08C104.621 22.9093 104.749 22.7173 104.834 22.504C104.93 22.28 104.978 22.0507 104.978 21.816ZM108.709 25V13.544H110.805V25H108.709ZM112.535 17.16H114.503V18.104H114.631C114.823 17.7733 115.122 17.4907 115.527 17.256C115.932 17.0213 116.434 16.904 117.031 16.904C117.532 16.904 118.007 17.0107 118.455 17.224C118.914 17.4267 119.314 17.7147 119.655 18.088C120.007 18.4507 120.284 18.888 120.487 19.4C120.69 19.912 120.791 20.472 120.791 21.08C120.791 21.688 120.69 22.248 120.487 22.76C120.284 23.272 120.007 23.7147 119.655 24.088C119.314 24.4507 118.914 24.7387 118.455 24.952C118.007 25.1547 117.532 25.256 117.031 25.256C116.434 25.256 115.932 25.1387 115.527 24.904C115.122 24.6693 114.823 24.3867 114.631 24.056H114.503L114.631 25.176V28.456H112.535V17.16ZM116.599 23.32C116.876 23.32 117.138 23.2667 117.383 23.16C117.639 23.0533 117.863 22.904 118.055 22.712C118.247 22.52 118.402 22.2853 118.519 22.008C118.636 21.7307 118.695 21.4213 118.695 21.08C118.695 20.7387 118.636 20.4293 118.519 20.152C118.402 19.8747 118.247 19.64 118.055 19.448C117.863 19.256 117.639 19.1067 117.383 19C117.138 18.8933 116.876 18.84 116.599 18.84C116.322 18.84 116.055 18.8933 115.799 19C115.554 19.096 115.335 19.24 115.143 19.432C114.951 19.624 114.796 19.8587 114.679 20.136C114.562 20.4133 114.503 20.728 114.503 21.08C114.503 21.432 114.562 21.7467 114.679 22.024C114.796 22.3013 114.951 22.536 115.143 22.728C115.335 22.92 115.554 23.0693 115.799 23.176C116.055 23.272 116.322 23.32 116.599 23.32ZM121.974 13.544H124.07V16.76L123.942 18.184H124.07C124.294 17.8107 124.614 17.5067 125.03 17.272C125.457 17.0267 125.931 16.904 126.454 16.904C127.467 16.904 128.214 17.2027 128.694 17.8C129.185 18.3973 129.43 19.2133 129.43 20.248V25H127.334V20.504C127.334 19.96 127.206 19.5493 126.95 19.272C126.694 18.984 126.337 18.84 125.878 18.84C125.59 18.84 125.334 18.904 125.11 19.032C124.886 19.1493 124.694 19.3147 124.534 19.528C124.385 19.7413 124.267 19.992 124.182 20.28C124.107 20.5573 124.07 20.856 124.07 21.176V25H121.974V13.544ZM135.916 24.168H135.788C135.542 24.4667 135.244 24.7227 134.891 24.936C134.55 25.1493 134.108 25.256 133.564 25.256C133.158 25.256 132.774 25.1867 132.412 25.048C132.06 24.92 131.75 24.7387 131.484 24.504C131.217 24.2693 131.009 23.9867 130.86 23.656C130.71 23.3253 130.636 22.9627 130.636 22.568C130.636 22.1627 130.716 21.8 130.876 21.48C131.036 21.1493 131.26 20.8667 131.548 20.632C131.836 20.3973 132.172 20.2213 132.556 20.104C132.95 19.976 133.377 19.912 133.836 19.912C134.348 19.912 134.769 19.9547 135.1 20.04C135.43 20.1147 135.702 20.1947 135.916 20.28V20.04C135.916 19.624 135.75 19.2827 135.42 19.016C135.089 18.7387 134.678 18.6 134.188 18.6C133.462 18.6 132.849 18.904 132.348 19.512L130.828 18.472C131.66 17.4267 132.796 16.904 134.236 16.904C135.452 16.904 136.38 17.192 137.02 17.768C137.66 18.3333 137.98 19.176 137.98 20.296V25H135.916V24.168ZM135.916 21.816C135.67 21.6987 135.414 21.608 135.148 21.544C134.892 21.4693 134.609 21.432 134.299 21.432C133.798 21.432 133.409 21.544 133.132 21.768C132.865 21.9813 132.732 22.248 132.732 22.568C132.732 22.888 132.86 23.144 133.116 23.336C133.382 23.528 133.686 23.624 134.028 23.624C134.305 23.624 134.561 23.576 134.796 23.48C135.03 23.3733 135.228 23.24 135.388 23.08C135.558 22.9093 135.686 22.7173 135.772 22.504C135.868 22.28 135.916 22.0507 135.916 21.816Z" fill="white"/>
</g>
<path d="M1.792 31V8.088H5.984V31H1.792ZM24.265 27.224C23.5397 28.504 22.5583 29.5387 21.321 30.328C20.105 31.1173 18.6117 31.512 16.841 31.512C15.6463 31.512 14.537 31.3093 13.513 30.904C12.5103 30.4773 11.6357 29.8907 10.889 29.144C10.1423 28.3973 9.55567 27.5227 9.129 26.52C8.72367 25.496 8.521 24.376 8.521 23.16C8.521 22.0293 8.72367 20.9627 9.129 19.96C9.53433 18.936 10.0997 18.0507 10.825 17.304C11.5503 16.536 12.4037 15.928 13.385 15.48C14.3877 15.032 15.4863 14.808 16.681 14.808C17.9397 14.808 19.0597 15.0213 20.041 15.448C21.0223 15.8533 21.8437 16.4293 22.505 17.176C23.1663 17.9013 23.6677 18.7653 24.009 19.768C24.3503 20.7707 24.521 21.8587 24.521 23.032C24.521 23.1813 24.521 23.3093 24.521 23.416C24.4997 23.544 24.489 23.6613 24.489 23.768C24.4677 23.8747 24.457 23.992 24.457 24.12H12.649C12.7343 24.76 12.905 25.3147 13.161 25.784C13.4383 26.232 13.769 26.616 14.153 26.936C14.5583 27.2347 14.9957 27.4587 15.465 27.608C15.9343 27.736 16.4143 27.8 16.905 27.8C17.865 27.8 18.6543 27.5867 19.273 27.16C19.913 26.712 20.4143 26.1573 20.777 25.496L24.265 27.224ZM20.457 21.144C20.4357 20.8667 20.3397 20.5573 20.169 20.216C20.0197 19.8747 19.785 19.5547 19.465 19.256C19.1663 18.9573 18.7823 18.712 18.313 18.52C17.865 18.328 17.321 18.232 16.681 18.232C15.785 18.232 14.9957 18.488 14.313 19C13.6303 19.512 13.1503 20.2267 12.873 21.144H20.457ZM28.4575 18.904H25.7055V15.32H28.4575V10.52H32.6495V15.32H36.4895V18.904H32.6495V24.984C32.6495 25.3467 32.6815 25.688 32.7455 26.008C32.8308 26.3067 32.9802 26.5627 33.1935 26.776C33.4922 27.1173 33.9188 27.288 34.4735 27.288C34.8362 27.288 35.1242 27.256 35.3375 27.192C35.5508 27.1067 35.7535 27 35.9455 26.872L37.1295 30.552C36.6388 30.7867 36.1055 30.9573 35.5295 31.064C34.9748 31.192 34.3562 31.256 33.6735 31.256C32.8842 31.256 32.1695 31.1387 31.5295 30.904C30.9108 30.648 30.3882 30.3067 29.9615 29.88C28.9588 28.92 28.4575 27.5547 28.4575 25.784V18.904ZM42.1013 31.192C41.3333 31.192 40.6719 30.9253 40.1173 30.392C39.5839 29.8373 39.3173 29.176 39.3173 28.408C39.3173 27.64 39.5839 26.9893 40.1173 26.456C40.6719 25.9227 41.3333 25.656 42.1013 25.656C42.8693 25.656 43.5199 25.9227 44.0533 26.456C44.5866 26.9893 44.8533 27.64 44.8533 28.408C44.8533 29.176 44.5866 29.8373 44.0533 30.392C43.5199 30.9253 42.8693 31.192 42.1013 31.192ZM54.375 31.512C53.351 31.512 52.4337 31.384 51.623 31.128C50.8337 30.872 50.1403 30.5413 49.543 30.136C48.967 29.7093 48.4763 29.2293 48.071 28.696C47.6657 28.1413 47.3563 27.5867 47.143 27.032L50.887 25.432C51.2497 26.2427 51.7297 26.8507 52.327 27.256C52.9457 27.64 53.6283 27.832 54.375 27.832C55.143 27.832 55.751 27.6933 56.199 27.416C56.647 27.1387 56.871 26.808 56.871 26.424C56.871 25.9973 56.679 25.656 56.295 25.4C55.9323 25.1227 55.2923 24.8773 54.375 24.664L52.167 24.184C51.6763 24.0773 51.1643 23.9067 50.631 23.672C50.119 23.4373 49.6497 23.1387 49.223 22.776C48.7963 22.4133 48.4443 21.976 48.167 21.464C47.8897 20.952 47.751 20.3547 47.751 19.672C47.751 18.904 47.911 18.2213 48.231 17.624C48.5723 17.0267 49.031 16.5253 49.607 16.12C50.183 15.6933 50.855 15.3733 51.623 15.16C52.4123 14.9253 53.255 14.808 54.151 14.808C55.6443 14.808 56.9777 15.1067 58.151 15.704C59.3243 16.28 60.1883 17.208 60.743 18.488L57.127 19.96C56.8283 19.3413 56.391 18.8933 55.815 18.616C55.239 18.3387 54.663 18.2 54.087 18.2C53.4897 18.2 52.967 18.328 52.519 18.584C52.071 18.8187 51.847 19.128 51.847 19.512C51.847 19.8747 52.0283 20.1627 52.391 20.376C52.775 20.5893 53.287 20.7813 53.927 20.952L56.327 21.528C57.927 21.912 59.111 22.5307 59.879 23.384C60.6683 24.216 61.063 25.208 61.063 26.36C61.063 27.0427 60.903 27.6933 60.583 28.312C60.263 28.9307 59.8043 29.4853 59.207 29.976C58.631 30.4453 57.927 30.8187 57.095 31.096C56.2843 31.3733 55.3777 31.512 54.375 31.512ZM63.6358 8.088H67.8278V14.52L67.5718 17.368H67.8278C68.2758 16.6213 68.9158 16.0133 69.7478 15.544C70.6011 15.0533 71.5504 14.808 72.5958 14.808C74.6224 14.808 76.1158 15.4053 77.0758 16.6C78.0571 17.7947 78.5478 19.4267 78.5478 21.496V31H74.3558V22.008C74.3558 20.92 74.0998 20.0987 73.5878 19.544C73.0758 18.968 72.3611 18.68 71.4438 18.68C70.8678 18.68 70.3558 18.808 69.9078 19.064C69.4598 19.2987 69.0758 19.6293 68.7558 20.056C68.4571 20.4827 68.2224 20.984 68.0518 21.56C67.9024 22.1147 67.8278 22.712 67.8278 23.352V31H63.6358V8.088Z" fill="black"/>
<defs>
<filter id="filter0_d_402_1791" x="81" y="1" width="76" height="47" filterUnits="userSpaceOnUse" color-interpolation-filters="sRGB">
<feFlood flood-opacity="0" result="BackgroundImageFix"/>
<feColorMatrix in="SourceAlpha" type="matrix" values="0 0 0 0 0 0 0 0 0 0 0 0 0 0 0 0 0 0 127 0" result="hardAlpha"/>
<feMorphology radius="10" operator="erode" in="SourceAlpha" result="effect1_dropShadow_402_1791"/>
<feOffset dy="5"/>
<feGaussianBlur stdDeviation="10"/>
<feColorMatrix type="matrix" values="0 0 0 0 0.027451 0 0 0 0 0.52549 0 0 0 0 1 0 0 0 1 0"/>
<feBlend mode="normal" in2="BackgroundImageFix" result="effect1_dropShadow_402_1791"/>
<feBlend mode="normal" in="SourceGraphic" in2="effect1_dropShadow_402_1791" result="shape"/>
</filter>
</defs>
</svg>
